<svg version="1.1" id="Layer_1" xmlns="http://www.w3.org/2000/svg" xmlns:xlink="http://www.w3.org/1999/xlink" x="0px" y="0px"
	 width="100%" viewBox="0 0 3318 1263" enable-background="new 0 0 3318 1263" xml:space="preserve">
<path fill="#000000" opacity="1.000000" stroke="none" 
	d="
M3319.000000,2.000000 
	C3319.000000,422.631012 3319.000000,843.262024 3319.000000,1264.000000 
	C2215.962402,1264.000000 1112.924805,1264.000000 9.305910,1263.554321 
	C8.713192,1262.442261 8.691760,1261.776001 8.691758,1261.109619 
	C8.690181,842.890930 8.689734,424.672272 8.702678,6.453607 
	C8.702724,4.968273 8.896146,3.482946 9.430996,1.999861 
	C1112.908447,2.001404 2215.954346,2.000702 3319.000000,2.000000 
M1296.979736,512.924255 
	C1296.979736,574.611572 1296.979736,636.298889 1296.979736,698.546326 
	C1234.839844,698.546326 1173.499634,698.546326 1112.093872,698.546326 
	C1111.900024,699.723389 1111.702637,700.363037 1111.702271,701.002808 
	C1111.683472,733.635803 1111.666016,766.268921 1111.734497,798.901733 
	C1111.737183,800.187683 1112.575806,801.471924 1113.943481,802.924072 
	C1208.311768,802.933716 1302.680176,802.943787 1397.048462,802.946289 
	C1398.043823,802.946289 1399.039185,802.845947 1400.791504,802.734314 
	C1401.064819,800.827271 1401.576416,798.920410 1401.577148,797.013245 
	C1401.616333,704.366211 1401.611328,611.719238 1401.611328,519.072205 
	C1401.611328,516.810059 1401.611328,514.547852 1401.611328,511.613525 
	C1470.683228,511.613525 1539.039307,511.613525 1607.415283,511.613525 
	C1607.415283,381.532562 1607.415283,252.137451 1607.415283,122.519470 
	C1572.536743,122.519470 1537.982300,122.519470 1502.817871,122.519470 
	C1502.817871,217.380493 1502.817871,311.915771 1502.817871,406.602234 
	C1468.815063,406.602234 1435.423706,406.602234 1401.443237,406.602234 
	C1401.443237,311.691711 1401.443237,217.136414 1401.443237,122.637718 
	C1366.313721,122.637718 1331.776489,122.637718 1296.942627,122.637718 
	C1296.942627,217.719177 1296.942627,312.354736 1297.002319,406.997223 
	C1297.002319,406.997223 1296.988159,406.938721 1296.050781,406.948212 
	C1234.792358,406.948212 1173.533936,406.948212 1111.987671,406.948212 
	C1111.987671,442.058167 1111.987671,476.619202 1111.987671,511.791595 
	C1114.246704,511.791595 1116.194946,511.791626 1118.143188,511.791626 
	C1175.108154,511.791687 1232.073242,511.789185 1289.038208,511.799866 
	C1291.699097,511.800354 1294.360107,511.918579 1297.000000,511.998840 
	C1297.000000,511.998840 1297.020996,511.985748 1296.979736,512.924255 
M501.000946,801.000427 
	C501.000946,801.000427 501.039642,800.966125 501.599274,801.574707 
	C502.757507,801.655945 503.915741,801.808228 505.073975,801.808289 
	C667.054993,801.818848 829.036072,801.819031 991.017090,801.807129 
	C992.606934,801.807007 994.196777,801.639709 995.784851,801.550598 
	C995.784851,574.876343 995.784851,348.800354 995.784851,122.533554 
	C830.500732,122.533554 665.494751,122.533554 500.112854,122.533554 
	C500.112854,124.439384 500.112854,125.916931 500.112854,127.394478 
	C500.112823,350.368347 500.110962,573.342224 500.150848,796.316101 
	C500.151123,797.864624 500.726807,799.413025 501.000946,801.000427 
M1725.031372,800.931091 
	C1725.864380,800.946350 1726.697266,800.974854 1727.530273,800.974854 
	C1889.681396,800.976685 2051.832520,800.976685 2213.983643,800.971191 
	C2215.314941,800.971130 2216.646240,800.894165 2218.786377,800.557068 
	C2218.900391,798.906616 2219.114258,797.256226 2219.114502,795.605835 
	C2219.129395,572.988098 2219.129150,350.370361 2219.118164,127.752640 
	C2219.118164,126.000328 2218.959961,124.248016 2218.875977,122.500092 
	C2053.447754,122.500092 1888.584717,122.500092 1723.464233,122.500092 
	C1723.370850,124.317871 1723.229614,125.783920 1723.229492,127.249962 
	C1723.219727,350.200928 1723.218384,573.151917 1723.258301,796.102905 
	C1723.258667,797.641479 1723.834473,799.179932 1725.031372,800.931091 
M2518.500000,122.312500 
	C2457.558838,122.312500 2396.617432,122.312500 2335.491699,122.312500 
	C2335.491699,348.890228 2335.491699,574.766418 2335.491699,800.709961 
	C2370.276855,800.709961 2404.697510,800.709961 2439.688232,800.709961 
	C2439.688232,704.045105 2439.688232,607.645935 2439.688232,511.095856 
	C2474.463379,511.095856 2508.666504,511.095856 2543.417480,511.095856 
	C2543.417480,607.893494 2543.417480,704.298523 2543.417480,800.691711 
	C2639.394043,800.691711 2734.821045,800.691711 2830.497559,800.691711 
	C2830.497559,766.322998 2830.497559,732.240234 2830.497559,697.546753 
	C2769.370850,697.546753 2708.491943,697.546753 2647.430176,697.546753 
	C2647.430176,635.025757 2647.430176,573.115723 2647.430176,510.701813 
	C2649.659424,510.701813 2651.619385,510.701782 2653.579346,510.701782 
	C2710.745117,510.701752 2767.911133,510.644440 2825.076416,510.808563 
	C2829.747559,510.821991 2830.879639,509.485016 2830.851562,504.948822 
	C2830.658447,473.783875 2830.753418,442.617096 2830.740479,411.450928 
	C2830.739746,409.829773 2830.597900,408.208649 2830.493164,405.976379 
	C2769.280029,405.976379 2708.406738,405.976379 2646.977539,405.976379 
	C2646.977539,311.127350 2646.977539,216.909134 2646.977539,122.312836 
	C2604.111328,122.312836 2561.805664,122.312836 2518.500000,122.312500 
M2543.518555,903.499573 
	C2543.518555,978.596558 2543.518555,1053.693604 2543.518555,1128.691406 
	C2568.327393,1128.691406 2592.568848,1128.691406 2617.225830,1128.691406 
	C2617.225830,1062.640747 2617.225830,996.920654 2617.225830,931.301514 
	C2628.232178,931.301514 2638.816650,931.301514 2649.799072,931.301514 
	C2649.799072,997.336792 2649.799072,1063.076050 2649.799072,1128.768921 
	C2674.476074,1128.768921 2698.747314,1128.768921 2723.431641,1128.768921 
	C2723.431641,1062.781616 2723.431641,997.046753 2723.431641,931.223389 
	C2734.437988,931.223389 2745.027832,931.223389 2756.006592,931.223389 
	C2756.006592,997.170776 2756.006592,1062.901123 2756.006592,1128.647217 
	C2780.751465,1128.647217 2805.104004,1128.647217 2829.297363,1128.647217 
	C2829.297363,1038.053955 2829.297363,947.836426 2829.297363,857.691650 
	C2733.894043,857.691650 2638.863037,857.691650 2543.518555,857.691650 
	C2543.518555,872.879333 2543.518555,887.689453 2543.518555,903.499573 
M1871.234497,893.499939 
	C1871.234497,971.937622 1871.234497,1050.375366 1871.234497,1128.985840 
	C1896.378784,1128.985840 1921.053345,1128.985840 1946.100830,1128.985840 
	C1946.100830,1107.343750 1946.100830,1086.084229 1946.100830,1064.714233 
	C1987.498657,1064.714233 2028.520508,1064.714233 2070.028320,1064.714233 
	C2070.028320,1086.501709 2070.028320,1107.902954 2070.028320,1129.120117 
	C2094.947510,1129.120117 2119.378418,1129.120117 2143.799805,1129.120117 
	C2143.799805,1038.362183 2143.799805,947.855469 2143.799805,857.385742 
	C2052.846924,857.385742 1962.276001,857.385742 1871.234497,857.385742 
	C1871.234497,869.261902 1871.234497,880.880859 1871.234497,893.499939 
M1053.500000,1130.011353 
	C1073.926880,1130.011353 1094.353760,1130.011353 1114.737305,1130.011353 
	C1114.737305,1039.163940 1114.737305,948.947632 1114.737305,858.633972 
	C1024.290161,858.633972 934.126221,858.633972 843.935181,858.633972 
	C843.935181,949.210815 843.935181,1039.433716 843.935181,1130.011353 
	C913.615662,1130.011353 983.057861,1130.011353 1053.500000,1130.011353 
M772.345642,1020.500183 
	C772.345642,966.577454 772.345642,912.654785 772.345642,858.523193 
	C681.547607,858.523193 591.326050,858.523193 500.930664,858.523193 
	C500.930664,953.618042 500.930664,1048.469971 500.930664,1143.427612 
	C525.486755,1143.427612 549.727661,1143.427612 574.557617,1143.427612 
	C574.557617,1116.921631 574.557617,1090.707886 574.557617,1064.173584 
	C640.732544,1064.173584 706.317688,1064.173584 772.345642,1064.173584 
	C772.345642,1049.730103 772.345642,1035.615112 772.345642,1020.500183 
M1593.478271,857.630127 
	C1571.739746,857.630127 1550.001343,857.630127 1528.215820,857.630127 
	C1528.215820,948.518982 1528.215820,1038.777954 1528.215820,1128.993896 
	C1553.467285,1128.993896 1578.496338,1128.993896 1604.024780,1128.993896 
	C1604.024780,1096.734009 1604.024780,1064.848022 1604.024780,1033.096680 
	C1644.952637,1033.096680 1685.376465,1033.096680 1726.248291,1033.096680 
	C1726.248291,1065.257324 1726.248291,1097.167603 1726.248291,1128.985352 
	C1751.752930,1128.985352 1776.806152,1128.985352 1801.761719,1128.985352 
	C1801.761719,1038.365234 1801.761719,948.130981 1801.761719,857.855286 
	C1776.498047,857.855286 1751.558716,857.855286 1726.125366,857.855286 
	C1726.125366,891.635681 1726.125366,925.195190 1726.125366,958.758484 
	C1685.075562,958.758484 1644.521606,958.758484 1603.645996,958.758484 
	C1603.645996,924.999756 1603.645996,891.558105 1603.645996,857.630066 
	C1600.385864,857.630066 1597.426880,857.630066 1593.478271,857.630127 
M2468.499268,857.310486 
	C2449.920410,857.310486 2431.341553,857.310486 2412.210449,857.310486 
	C2412.210449,923.588013 2412.210449,989.127319 2412.210449,1054.692871 
	C2370.888672,1054.692871 2330.129150,1054.692871 2288.886719,1054.692871 
	C2288.886719,988.910278 2288.886719,923.351379 2288.886719,857.546753 
	C2263.830322,857.546753 2239.257568,857.546753 2214.515137,857.546753 
	C2214.515137,948.313477 2214.515137,1038.840698 2214.515137,1129.464111 
	C2305.441406,1129.464111 2396.024170,1129.464111 2486.721191,1129.464111 
	C2486.721191,1038.692871 2486.721191,948.153625 2486.721191,857.310486 
	C2480.777344,857.310486 2475.137939,857.310486 2468.499268,857.310486 
M1327.499756,1129.689941 
	C1332.832031,1129.689819 1338.199219,1129.313965 1343.485718,1129.805908 
	C1347.910400,1130.217651 1349.840576,1128.453979 1351.614258,1124.637329 
	C1389.387329,1043.357056 1427.291748,962.137939 1465.166016,880.904724 
	C1468.726807,873.267639 1472.257690,865.616516 1475.894897,857.772339 
	C1474.916260,857.526855 1474.471436,857.317871 1474.026611,857.317627 
	C1448.698975,857.304504 1423.370850,857.394592 1398.044556,857.210266 
	C1394.602051,857.185181 1393.930176,859.217834 1392.890259,861.453125 
	C1374.509033,900.961731 1356.132568,940.472595 1337.734619,979.973389 
	C1332.714600,990.751343 1327.627808,1001.498108 1322.199829,1013.050598 
	C1320.984375,1010.710449 1320.112183,1009.174072 1319.368286,1007.577942 
	C1296.680420,958.898621 1273.972290,910.228821 1251.404541,861.493958 
	C1249.933716,858.317932 1248.292236,857.192993 1244.747070,857.219604 
	C1220.920532,857.398438 1197.091919,857.312683 1173.264038,857.312622 
	C1171.862305,857.312622 1170.460571,857.312622 1168.144531,857.312622 
	C1210.749512,948.708618 1252.948975,1039.234619 1295.115601,1129.689941 
	C1305.840576,1129.689941 1316.170166,1129.689941 1327.499756,1129.689941 
z"/>
<path fill="#F2F2F2" opacity="1.000000" stroke="none" 
	d="
M8.999254,1.997615 
	C8.896146,3.482946 8.702724,4.968273 8.702678,6.453607 
	C8.689734,424.672272 8.690181,842.890930 8.691758,1261.109619 
	C8.691760,1261.776001 8.713192,1262.442261 8.862307,1263.554321 
	C6.334319,1264.000000 3.668638,1264.000000 1.008989,1264.000000 
	C1.015021,843.000000 1.015021,422.000000 1.015021,1.000000 
	C3.362441,1.000000 5.694839,1.000000 8.512909,1.249403 
	C8.998580,1.498807 8.999253,1.997615 8.999254,1.997615 
z"/>
<path fill="#F9F9F9" opacity="1.000000" stroke="none" 
	d="
M9.430996,1.999861 
	C8.999253,1.997615 8.998580,1.498807 8.999290,1.249403 
	C1112.333374,1.000000 2215.666748,1.000000 3319.000000,1.500000 
	C2215.954346,2.000702 1112.908447,2.001404 9.430996,1.999861 
z"/>
<path fill="#ED1F24" opacity="1.000000" stroke="none" 
	d="
M2217.977539,800.853088 
	C2216.646240,800.894165 2215.314941,800.971130 2213.983643,800.971191 
	C2051.832520,800.976685 1889.681396,800.976685 1727.530273,800.974854 
	C1726.697266,800.974854 1725.864380,800.946350 1724.582397,800.375122 
	C1724.129639,576.042908 1724.125610,352.266602 1724.128662,128.490295 
	C1724.128662,126.992889 1724.227417,125.495476 1724.724609,123.998840 
	C1797.311157,123.999336 1869.453247,123.993050 1941.595215,124.000313 
	C2033.730103,124.009583 2125.864990,124.029785 2218.018311,124.510818 
	C2218.040039,349.102570 2218.043457,573.228760 2218.043945,797.354980 
	C2218.043945,798.520996 2218.000732,799.687073 2217.977539,800.853088 
M2114.687500,520.560669 
	C2114.687500,517.616333 2114.687500,514.671997 2114.687500,511.573212 
	C2018.833252,511.573212 1923.619995,511.573212 1828.367676,511.573212 
	C1828.367676,527.098999 1828.367676,542.306946 1828.367676,558.065186 
	C1901.801880,558.065186 1974.841919,558.065186 2048.421875,558.065186 
	C2048.421875,604.674072 2048.421875,650.729431 2048.421875,696.707886 
	C2070.719971,696.707886 2092.473145,696.707886 2114.687012,696.707886 
	C2114.687012,638.107971 2114.687012,579.824951 2114.687500,520.560669 
M2114.681885,345.500031 
	C2114.681885,306.085114 2114.681885,266.670197 2114.681885,227.236786 
	C2092.163330,227.236786 2070.416504,227.236786 2048.164307,227.236786 
	C2048.164307,273.783112 2048.164307,320.015717 2048.164307,366.762177 
	C1974.608521,366.762177 1901.558350,366.762177 1828.340820,366.762177 
	C1828.340820,382.311951 1828.340820,397.341644 1828.340820,412.315063 
	C1923.897705,412.315063 2019.086670,412.315063 2114.681396,412.315063 
	C2114.681396,390.099945 2114.681396,368.299988 2114.681885,345.500031 
M1885.500000,226.921585 
	C1866.436890,226.921585 1847.373779,226.921585 1828.331055,226.921585 
	C1828.331055,241.027771 1828.331055,254.408752 1828.331055,267.719055 
	C1868.867432,267.719055 1909.047485,267.719055 1949.260742,267.719055 
	C1949.260742,253.992584 1949.260742,240.620377 1949.260742,226.921509 
	C1928.078003,226.921509 1907.289062,226.921509 1885.500000,226.921585 
M1873.500000,697.024170 
	C1898.751221,697.024170 1924.002319,697.024170 1949.286255,697.024170 
	C1949.286255,683.077515 1949.286255,669.839417 1949.286255,656.540527 
	C1908.692749,656.540527 1868.471924,656.540527 1828.287109,656.540527 
	C1828.287109,670.159668 1828.287109,683.412170 1828.287109,697.024170 
	C1843.231689,697.024170 1857.865845,697.024170 1873.500000,697.024170 
z"/>
<path fill="#EC1F24" opacity="1.000000" stroke="none" 
	d="
M2519.000000,122.312668 
	C2561.805664,122.312836 2604.111328,122.312836 2646.977539,122.312836 
	C2646.977539,216.909134 2646.977539,311.127350 2646.977539,405.976379 
	C2708.406738,405.976379 2769.280029,405.976379 2830.493164,405.976379 
	C2830.597900,408.208649 2830.739746,409.829773 2830.740479,411.450928 
	C2830.753418,442.617096 2830.658447,473.783875 2830.851562,504.948822 
	C2830.879639,509.485016 2829.747559,510.821991 2825.076416,510.808563 
	C2767.911133,510.644440 2710.745117,510.701752 2653.579346,510.701782 
	C2651.619385,510.701782 2649.659424,510.701813 2647.430176,510.701813 
	C2647.430176,573.115723 2647.430176,635.025757 2647.430176,697.546753 
	C2708.491943,697.546753 2769.370850,697.546753 2830.497559,697.546753 
	C2830.497559,732.240234 2830.497559,766.322998 2830.497559,800.691711 
	C2734.821045,800.691711 2639.394043,800.691711 2543.417480,800.691711 
	C2543.417480,704.298523 2543.417480,607.893494 2543.417480,511.095856 
	C2508.666504,511.095856 2474.463379,511.095856 2439.688232,511.095856 
	C2439.688232,607.645935 2439.688232,704.045105 2439.688232,800.709961 
	C2404.697510,800.709961 2370.276855,800.709961 2335.491699,800.709961 
	C2335.491699,574.766418 2335.491699,348.890228 2335.491699,122.312500 
	C2396.617432,122.312500 2457.558838,122.312500 2519.000000,122.312668 
M2543.230713,344.500000 
	C2543.230713,305.105255 2543.230713,265.710510 2543.230713,226.222961 
	C2508.385986,226.222961 2474.314941,226.222961 2439.932617,226.222961 
	C2439.932617,286.177734 2439.932617,345.856903 2439.932617,405.730927 
	C2474.440918,405.730927 2508.635986,405.730927 2543.230957,405.730927 
	C2543.230957,385.421204 2543.230957,365.460602 2543.230713,344.500000 
z"/>
<path fill="#EC1F24" opacity="1.000000" stroke="none" 
	d="
M1400.034546,802.792419 
	C1399.039185,802.845947 1398.043823,802.946289 1397.048462,802.946289 
	C1302.680176,802.943787 1208.311768,802.933716 1113.479492,802.389160 
	C1113.015381,767.770142 1113.015381,733.685974 1113.015381,699.099182 
	C1115.675415,699.099182 1117.636719,699.099182 1119.597900,699.099182 
	C1177.240723,699.099182 1234.883789,699.049561 1292.526245,699.197021 
	C1296.958008,699.208313 1298.115967,697.984680 1298.105347,693.591492 
	C1297.962402,634.782776 1298.018188,575.973633 1297.968140,517.164612 
	C1297.966675,515.438049 1297.350464,513.712036 1297.020996,511.985748 
	C1297.020996,511.985748 1297.000000,511.998840 1296.926025,511.594666 
	C1294.828979,510.812103 1292.806274,510.105255 1290.782715,510.103149 
	C1233.803589,510.043610 1176.824341,510.055359 1119.845215,510.055359 
	C1117.745117,510.055359 1115.645020,510.055328 1113.308228,510.055328 
	C1113.308228,475.765900 1113.308228,442.209045 1113.308228,408.026184 
	C1115.554932,408.026184 1117.501831,408.026215 1119.448730,408.026215 
	C1176.761108,408.026215 1234.073486,408.036438 1291.385864,407.980438 
	C1293.253662,407.978607 1295.120728,407.301239 1296.988159,406.938721 
	C1296.988159,406.938721 1297.002319,406.997223 1297.294678,406.722412 
	C1297.728027,404.471863 1297.991699,402.496155 1297.992188,400.520386 
	C1298.012451,310.701050 1298.009644,220.881699 1298.009888,131.062347 
	C1298.009888,123.945625 1298.011353,123.943001 1304.848755,123.942749 
	C1334.344238,123.941681 1363.839600,123.941513 1393.335083,123.942863 
	C1400.045166,123.943176 1400.048340,123.946556 1400.048462,130.705093 
	C1400.049194,220.857712 1400.048218,311.010345 1400.050293,401.162964 
	C1400.050537,408.018555 1400.059692,408.024536 1406.980103,408.025116 
	C1437.142090,408.027557 1467.303955,408.027069 1497.465942,408.025574 
	C1504.012207,408.025269 1504.017456,408.021393 1504.017578,401.599670 
	C1504.018799,310.947113 1504.018433,220.294571 1504.018433,129.642029 
	C1504.018433,127.692131 1504.018433,125.742233 1504.018433,123.942337 
	C1536.411377,123.942337 1568.227051,124.042381 1600.040771,123.834732 
	C1604.824097,123.803505 1606.161011,125.077385 1606.155884,129.911636 
	C1606.024414,254.558746 1606.017700,379.206055 1606.173218,503.853119 
	C1606.179565,509.005432 1604.781860,510.182800 1599.776001,510.169250 
	C1535.953125,509.996399 1472.129517,510.055206 1408.306152,510.055481 
	C1400.052490,510.055511 1400.049805,510.056335 1400.049316,518.336792 
	C1400.043945,613.155334 1400.039307,707.973877 1400.034546,802.792419 
z"/>
<path fill="#FEFEFE" opacity="1.000000" stroke="none" 
	d="
M2543.518555,902.999512 
	C2543.518555,887.689453 2543.518555,872.879333 2543.518555,857.691650 
	C2638.863037,857.691650 2733.894043,857.691650 2829.297363,857.691650 
	C2829.297363,947.836426 2829.297363,1038.053955 2829.297363,1128.647217 
	C2805.104004,1128.647217 2780.751465,1128.647217 2756.006592,1128.647217 
	C2756.006592,1062.901123 2756.006592,997.170776 2756.006592,931.223389 
	C2745.027832,931.223389 2734.437988,931.223389 2723.431641,931.223389 
	C2723.431641,997.046753 2723.431641,1062.781616 2723.431641,1128.768921 
	C2698.747314,1128.768921 2674.476074,1128.768921 2649.799072,1128.768921 
	C2649.799072,1063.076050 2649.799072,997.336792 2649.799072,931.301514 
	C2638.816650,931.301514 2628.232178,931.301514 2617.225830,931.301514 
	C2617.225830,996.920654 2617.225830,1062.640747 2617.225830,1128.691406 
	C2592.568848,1128.691406 2568.327393,1128.691406 2543.518555,1128.691406 
	C2543.518555,1053.693604 2543.518555,978.596558 2543.518555,902.999512 
z"/>
<path fill="#FEFEFE" opacity="1.000000" stroke="none" 
	d="
M1871.234497,892.999878 
	C1871.234497,880.880859 1871.234497,869.261902 1871.234497,857.385742 
	C1962.276001,857.385742 2052.846924,857.385742 2143.799805,857.385742 
	C2143.799805,947.855469 2143.799805,1038.362183 2143.799805,1129.120117 
	C2119.378418,1129.120117 2094.947510,1129.120117 2070.028320,1129.120117 
	C2070.028320,1107.902954 2070.028320,1086.501709 2070.028320,1064.714233 
	C2028.520508,1064.714233 1987.498657,1064.714233 1946.100830,1064.714233 
	C1946.100830,1086.084229 1946.100830,1107.343750 1946.100830,1128.985840 
	C1921.053345,1128.985840 1896.378784,1128.985840 1871.234497,1128.985840 
	C1871.234497,1050.375366 1871.234497,971.937622 1871.234497,892.999878 
M2064.364258,991.103699 
	C2066.106445,991.103699 2067.848389,991.103699 2069.467041,991.103699 
	C2069.467041,970.951294 2069.467041,951.548462 2069.467041,932.261841 
	C2028.148926,932.261841 1987.133179,932.261841 1946.276367,932.261841 
	C1946.276367,952.058899 1946.276367,971.456360 1946.276367,991.103760 
	C1985.513428,991.103760 2024.454468,991.103760 2064.364258,991.103699 
z"/>
<path fill="#FEFEFE" opacity="1.000000" stroke="none" 
	d="
M1053.000000,1130.011353 
	C983.057861,1130.011353 913.615662,1130.011353 843.935181,1130.011353 
	C843.935181,1039.433716 843.935181,949.210815 843.935181,858.633972 
	C934.126221,858.633972 1024.290161,858.633972 1114.737305,858.633972 
	C1114.737305,948.947632 1114.737305,1039.163940 1114.737305,1130.011353 
	C1094.353760,1130.011353 1073.926880,1130.011353 1053.000000,1130.011353 
M1019.500000,931.862305 
	C985.411011,931.862305 951.322083,931.862305 917.141724,931.862305 
	C917.141724,973.647766 917.141724,1014.972656 917.141724,1056.305420 
	C958.857666,1056.305420 1000.227783,1056.305420 1041.609009,1056.305420 
	C1041.609009,1014.735840 1041.609009,973.509644 1041.609009,931.862305 
	C1034.410767,931.862305 1027.455322,931.862305 1019.500000,931.862305 
z"/>
<path fill="#FEFEFE" opacity="1.000000" stroke="none" 
	d="
M772.345642,1021.000244 
	C772.345642,1035.615112 772.345642,1049.730103 772.345642,1064.173584 
	C706.317688,1064.173584 640.732544,1064.173584 574.557617,1064.173584 
	C574.557617,1090.707886 574.557617,1116.921631 574.557617,1143.427612 
	C549.727661,1143.427612 525.486755,1143.427612 500.930664,1143.427612 
	C500.930664,1048.469971 500.930664,953.618042 500.930664,858.523193 
	C591.326050,858.523193 681.547607,858.523193 772.345642,858.523193 
	C772.345642,912.654785 772.345642,966.577454 772.345642,1021.000244 
M698.987061,951.500366 
	C698.987061,945.055786 698.987061,938.611145 698.987061,932.181458 
	C657.132263,932.181458 615.769165,932.181458 574.440063,932.181458 
	C574.440063,951.904724 574.440063,971.308777 574.440063,990.767090 
	C616.134521,990.767090 657.480652,990.767090 698.987061,990.767090 
	C698.987061,977.787720 698.987061,965.143921 698.987061,951.500366 
z"/>
<path fill="#FEFEFE" opacity="1.000000" stroke="none" 
	d="
M1593.973145,857.630127 
	C1597.426880,857.630066 1600.385864,857.630066 1603.645996,857.630066 
	C1603.645996,891.558105 1603.645996,924.999756 1603.645996,958.758484 
	C1644.521606,958.758484 1685.075562,958.758484 1726.125366,958.758484 
	C1726.125366,925.195190 1726.125366,891.635681 1726.125366,857.855286 
	C1751.558716,857.855286 1776.498047,857.855286 1801.761719,857.855286 
	C1801.761719,948.130981 1801.761719,1038.365234 1801.761719,1128.985352 
	C1776.806152,1128.985352 1751.752930,1128.985352 1726.248291,1128.985352 
	C1726.248291,1097.167603 1726.248291,1065.257324 1726.248291,1033.096680 
	C1685.376465,1033.096680 1644.952637,1033.096680 1604.024780,1033.096680 
	C1604.024780,1064.848022 1604.024780,1096.734009 1604.024780,1128.993896 
	C1578.496338,1128.993896 1553.467285,1128.993896 1528.215820,1128.993896 
	C1528.215820,1038.777954 1528.215820,948.518982 1528.215820,857.630127 
	C1550.001343,857.630127 1571.739746,857.630127 1593.973145,857.630127 
z"/>
<path fill="#FDFDFD" opacity="1.000000" stroke="none" 
	d="
M2468.999023,857.310486 
	C2475.137939,857.310486 2480.777344,857.310486 2486.721191,857.310486 
	C2486.721191,948.153625 2486.721191,1038.692871 2486.721191,1129.464111 
	C2396.024170,1129.464111 2305.441406,1129.464111 2214.515137,1129.464111 
	C2214.515137,1038.840698 2214.515137,948.313477 2214.515137,857.546753 
	C2239.257568,857.546753 2263.830322,857.546753 2288.886719,857.546753 
	C2288.886719,923.351379 2288.886719,988.910278 2288.886719,1054.692871 
	C2330.129150,1054.692871 2370.888672,1054.692871 2412.210449,1054.692871 
	C2412.210449,989.127319 2412.210449,923.588013 2412.210449,857.310486 
	C2431.341553,857.310486 2449.920410,857.310486 2468.999023,857.310486 
z"/>
<path fill="#FDFDFD" opacity="1.000000" stroke="none" 
	d="
M1326.999756,1129.689941 
	C1316.170166,1129.689941 1305.840576,1129.689941 1295.115601,1129.689941 
	C1252.948975,1039.234619 1210.749512,948.708618 1168.144531,857.312622 
	C1170.460571,857.312622 1171.862305,857.312622 1173.264038,857.312622 
	C1197.091919,857.312683 1220.920532,857.398438 1244.747070,857.219604 
	C1248.292236,857.192993 1249.933716,858.317932 1251.404541,861.493958 
	C1273.972290,910.228821 1296.680420,958.898621 1319.368286,1007.577942 
	C1320.112183,1009.174072 1320.984375,1010.710449 1322.199829,1013.050598 
	C1327.627808,1001.498108 1332.714600,990.751343 1337.734619,979.973389 
	C1356.132568,940.472595 1374.509033,900.961731 1392.890259,861.453125 
	C1393.930176,859.217834 1394.602051,857.185181 1398.044556,857.210266 
	C1423.370850,857.394592 1448.698975,857.304504 1474.026611,857.317627 
	C1474.471436,857.317871 1474.916260,857.526855 1475.894897,857.772339 
	C1472.257690,865.616516 1468.726807,873.267639 1465.166016,880.904724 
	C1427.291748,962.137939 1389.387329,1043.357056 1351.614258,1124.637329 
	C1349.840576,1128.453979 1347.910400,1130.217651 1343.485718,1129.805908 
	C1338.199219,1129.313965 1332.832031,1129.689819 1326.999756,1129.689941 
z"/>
<path fill="#C53F34" opacity="1.000000" stroke="none" 
	d="
M1400.413086,802.763367 
	C1400.039307,707.973877 1400.043945,613.155334 1400.049316,518.336792 
	C1400.049805,510.056335 1400.052490,510.055511 1408.306152,510.055481 
	C1472.129517,510.055206 1535.953125,509.996399 1599.776001,510.169250 
	C1604.781860,510.182800 1606.179565,509.005432 1606.173218,503.853119 
	C1606.017700,379.206055 1606.024414,254.558746 1606.155884,129.911636 
	C1606.161011,125.077385 1604.824097,123.803505 1600.040771,123.834732 
	C1568.227051,124.042381 1536.411377,123.942337 1504.018433,123.942337 
	C1504.018433,125.742233 1504.018433,127.692131 1504.018433,129.642029 
	C1504.018433,220.294571 1504.018799,310.947113 1504.017578,401.599670 
	C1504.017456,408.021393 1504.012207,408.025269 1497.465942,408.025574 
	C1467.303955,408.027069 1437.142090,408.027557 1406.980103,408.025116 
	C1400.059692,408.024536 1400.050537,408.018555 1400.050293,401.162964 
	C1400.048218,311.010345 1400.049194,220.857712 1400.048462,130.705093 
	C1400.048340,123.946556 1400.045166,123.943176 1393.335083,123.942863 
	C1363.839600,123.941513 1334.344238,123.941681 1304.848755,123.942749 
	C1298.011353,123.943001 1298.009888,123.945625 1298.009888,131.062347 
	C1298.009644,220.881699 1298.012451,310.701050 1297.992188,400.520386 
	C1297.991699,402.496155 1297.728027,404.471863 1297.264893,406.718933 
	C1296.942627,312.354736 1296.942627,217.719177 1296.942627,122.637718 
	C1331.776489,122.637718 1366.313721,122.637718 1401.443237,122.637718 
	C1401.443237,217.136414 1401.443237,311.691711 1401.443237,406.602234 
	C1435.423706,406.602234 1468.815063,406.602234 1502.817871,406.602234 
	C1502.817871,311.915771 1502.817871,217.380493 1502.817871,122.519470 
	C1537.982300,122.519470 1572.536743,122.519470 1607.415283,122.519470 
	C1607.415283,252.137451 1607.415283,381.532562 1607.415283,511.613525 
	C1539.039307,511.613525 1470.683228,511.613525 1401.611328,511.613525 
	C1401.611328,514.547852 1401.611328,516.810059 1401.611328,519.072205 
	C1401.611328,611.719238 1401.616333,704.366211 1401.577148,797.013245 
	C1401.576416,798.920410 1401.064819,800.827271 1400.413086,802.763367 
z"/>
<path fill="#A44436" opacity="1.000000" stroke="none" 
	d="
M501.033813,800.961487 
	C500.726807,799.413025 500.151123,797.864624 500.150848,796.316101 
	C500.110962,573.342224 500.112823,350.368347 500.112854,127.394478 
	C500.112854,125.916931 500.112854,124.439384 500.112854,122.533554 
	C665.494751,122.533554 830.500732,122.533554 995.784851,122.533554 
	C995.784851,348.800354 995.784851,574.876343 995.784851,801.550598 
	C994.196777,801.639709 992.606934,801.807007 991.017090,801.807129 
	C829.036072,801.819031 667.054993,801.818848 505.073975,801.808289 
	C503.915741,801.808228 502.757507,801.655945 501.784546,801.236816 
	C666.213806,800.898987 830.457825,800.898987 995.040405,800.898987 
	C995.040405,798.387939 995.040405,796.735657 995.040405,795.083313 
	C995.040405,573.260925 995.027222,351.438568 995.133179,129.616257 
	C995.135315,125.080750 994.001892,123.732475 989.335999,123.735985 
	C828.510681,123.857109 667.685303,123.836044 506.859894,123.847931 
	C505.094299,123.848061 503.328735,124.014023 501.088531,124.126373 
	C501.088531,126.900917 501.088501,129.198334 501.088501,131.495743 
	C501.088470,352.151489 501.088684,572.807251 501.086243,793.463013 
	C501.086212,795.962524 501.052063,798.461975 501.033813,800.961487 
z"/>
<path fill="#AF4732" opacity="1.000000" stroke="none" 
	d="
M1724.280151,123.998077 
	C1724.227417,125.495476 1724.128662,126.992889 1724.128662,128.490295 
	C1724.125610,352.266602 1724.129639,576.042908 1724.137451,800.268799 
	C1723.834473,799.179932 1723.258667,797.641479 1723.258301,796.102905 
	C1723.218384,573.151917 1723.219727,350.200928 1723.229492,127.249962 
	C1723.229614,125.783920 1723.370850,124.317871 1723.464233,122.500092 
	C1888.584717,122.500092 2053.447754,122.500092 2218.875977,122.500092 
	C2218.959961,124.248016 2219.118164,126.000328 2219.118164,127.752640 
	C2219.129150,350.370361 2219.129395,572.988098 2219.114502,795.605835 
	C2219.114258,797.256226 2218.900391,798.906616 2218.381836,800.705078 
	C2218.000732,799.687073 2218.043945,798.520996 2218.043945,797.354980 
	C2218.043457,573.228760 2218.040039,349.102570 2217.736816,124.199051 
	C2215.955566,123.302666 2214.473877,123.079422 2212.992432,123.079269 
	C2051.634033,123.063431 1890.275635,123.061661 1728.917236,123.102821 
	C1727.371460,123.103218 1725.825806,123.686783 1724.280151,123.998077 
z"/>
<path fill="#C53F34" opacity="1.000000" stroke="none" 
	d="
M1296.519531,406.943481 
	C1295.120728,407.301239 1293.253662,407.978607 1291.385864,407.980438 
	C1234.073486,408.036438 1176.761108,408.026215 1119.448730,408.026215 
	C1117.501831,408.026215 1115.554932,408.026184 1113.308228,408.026184 
	C1113.308228,442.209045 1113.308228,475.765900 1113.308228,510.055328 
	C1115.645020,510.055328 1117.745117,510.055359 1119.845215,510.055359 
	C1176.824341,510.055359 1233.803589,510.043610 1290.782715,510.103149 
	C1292.806274,510.105255 1294.828979,510.812103 1296.936523,511.586243 
	C1294.360107,511.918579 1291.699097,511.800354 1289.038208,511.799866 
	C1232.073242,511.789185 1175.108154,511.791687 1118.143188,511.791626 
	C1116.194946,511.791626 1114.246704,511.791595 1111.987671,511.791595 
	C1111.987671,476.619202 1111.987671,442.058167 1111.987671,406.948212 
	C1173.533936,406.948212 1234.792358,406.948212 1296.519531,406.943481 
z"/>
<path fill="#C53F34" opacity="1.000000" stroke="none" 
	d="
M1297.000244,512.455017 
	C1297.350464,513.712036 1297.966675,515.438049 1297.968140,517.164612 
	C1298.018188,575.973633 1297.962402,634.782776 1298.105347,693.591492 
	C1298.115967,697.984680 1296.958008,699.208313 1292.526245,699.197021 
	C1234.883789,699.049561 1177.240723,699.099182 1119.597900,699.099182 
	C1117.636719,699.099182 1115.675415,699.099182 1113.015381,699.099182 
	C1113.015381,733.685974 1113.015381,767.770142 1113.020264,802.305603 
	C1112.575806,801.471924 1111.737183,800.187683 1111.734497,798.901733 
	C1111.666016,766.268921 1111.683472,733.635803 1111.702271,701.002808 
	C1111.702637,700.363037 1111.900024,699.723389 1112.093872,698.546326 
	C1173.499634,698.546326 1234.839844,698.546326 1296.979736,698.546326 
	C1296.979736,636.298889 1296.979736,574.611572 1297.000244,512.455017 
z"/>
<path fill="#030202" opacity="1.000000" stroke="none" 
	d="
M2114.687256,521.051270 
	C2114.687012,579.824951 2114.687012,638.107971 2114.687012,696.707886 
	C2092.473145,696.707886 2070.719971,696.707886 2048.421875,696.707886 
	C2048.421875,650.729431 2048.421875,604.674072 2048.421875,558.065186 
	C1974.841919,558.065186 1901.801880,558.065186 1828.367676,558.065186 
	C1828.367676,542.306946 1828.367676,527.098999 1828.367676,511.573212 
	C1923.619995,511.573212 2018.833252,511.573212 2114.687500,511.573212 
	C2114.687500,514.671997 2114.687500,517.616333 2114.687256,521.051270 
z"/>
<path fill="#020101" opacity="1.000000" stroke="none" 
	d="
M2114.681641,346.000061 
	C2114.681396,368.299988 2114.681396,390.099945 2114.681396,412.315063 
	C2019.086670,412.315063 1923.897705,412.315063 1828.340820,412.315063 
	C1828.340820,397.341644 1828.340820,382.311951 1828.340820,366.762177 
	C1901.558350,366.762177 1974.608521,366.762177 2048.164307,366.762177 
	C2048.164307,320.015717 2048.164307,273.783112 2048.164307,227.236786 
	C2070.416504,227.236786 2092.163330,227.236786 2114.681885,227.236786 
	C2114.681885,266.670197 2114.681885,306.085114 2114.681641,346.000061 
z"/>
<path fill="#010101" opacity="1.000000" stroke="none" 
	d="
M1886.000000,226.921539 
	C1907.289062,226.921509 1928.078003,226.921509 1949.260742,226.921509 
	C1949.260742,240.620377 1949.260742,253.992584 1949.260742,267.719055 
	C1909.047485,267.719055 1868.867432,267.719055 1828.331055,267.719055 
	C1828.331055,254.408752 1828.331055,241.027771 1828.331055,226.921585 
	C1847.373779,226.921585 1866.436890,226.921585 1886.000000,226.921539 
z"/>
<path fill="#020101" opacity="1.000000" stroke="none" 
	d="
M1873.000000,697.024170 
	C1857.865845,697.024170 1843.231689,697.024170 1828.287109,697.024170 
	C1828.287109,683.412170 1828.287109,670.159668 1828.287109,656.540527 
	C1868.471924,656.540527 1908.692749,656.540527 1949.286255,656.540527 
	C1949.286255,669.839417 1949.286255,683.077515 1949.286255,697.024170 
	C1924.002319,697.024170 1898.751221,697.024170 1873.000000,697.024170 
z"/>
<path fill="#F0342E" opacity="1.000000" stroke="none" 
	d="
M1724.724609,123.998840 
	C1725.825806,123.686783 1727.371460,123.103218 1728.917236,123.102821 
	C1890.275635,123.061661 2051.634033,123.063431 2212.992432,123.079269 
	C2214.473877,123.079422 2215.955566,123.302666 2217.718506,123.733513 
	C2125.864990,124.029785 2033.730103,124.009583 1941.595215,124.000313 
	C1869.453247,123.993050 1797.311157,123.999336 1724.724609,123.998840 
z"/>
<path fill="#000000" opacity="1.000000" stroke="none" 
	d="
M2543.230957,345.000000 
	C2543.230957,365.460602 2543.230957,385.421204 2543.230957,405.730927 
	C2508.635986,405.730927 2474.440918,405.730927 2439.932617,405.730927 
	C2439.932617,345.856903 2439.932617,286.177734 2439.932617,226.222961 
	C2474.314941,226.222961 2508.385986,226.222961 2543.230713,226.222961 
	C2543.230713,265.710510 2543.230713,305.105255 2543.230957,345.000000 
z"/>
<path fill="#010101" opacity="1.000000" stroke="none" 
	d="
M2063.879883,991.103760 
	C2024.454468,991.103760 1985.513428,991.103760 1946.276367,991.103760 
	C1946.276367,971.456360 1946.276367,952.058899 1946.276367,932.261841 
	C1987.133179,932.261841 2028.148926,932.261841 2069.467041,932.261841 
	C2069.467041,951.548462 2069.467041,970.951294 2069.467041,991.103699 
	C2067.848389,991.103699 2066.106445,991.103699 2063.879883,991.103760 
z"/>
<path fill="#020202" opacity="1.000000" stroke="none" 
	d="
M1019.999939,931.862305 
	C1027.455322,931.862305 1034.410767,931.862305 1041.609009,931.862305 
	C1041.609009,973.509644 1041.609009,1014.735840 1041.609009,1056.305420 
	C1000.227783,1056.305420 958.857666,1056.305420 917.141724,1056.305420 
	C917.141724,1014.972656 917.141724,973.647766 917.141724,931.862305 
	C951.322083,931.862305 985.411011,931.862305 1019.999939,931.862305 
z"/>
<path fill="#010101" opacity="1.000000" stroke="none" 
	d="
M698.987061,952.000244 
	C698.987061,965.143921 698.987061,977.787720 698.987061,990.767090 
	C657.480652,990.767090 616.134521,990.767090 574.440063,990.767090 
	C574.440063,971.308777 574.440063,951.904724 574.440063,932.181458 
	C615.769165,932.181458 657.132263,932.181458 698.987061,932.181458 
	C698.987061,938.611145 698.987061,945.055786 698.987061,952.000244 
z"/>
<path fill="#ED1F24" opacity="1.000000" stroke="none" 
	d="
M501.017395,800.980957 
	C501.052063,798.461975 501.086212,795.962524 501.086243,793.463013 
	C501.088684,572.807251 501.088470,352.151489 501.088501,131.495743 
	C501.088501,129.198334 501.088531,126.900917 501.088531,124.126373 
	C503.328735,124.014023 505.094299,123.848061 506.859894,123.847931 
	C667.685303,123.836044 828.510681,123.857109 989.335999,123.735985 
	C994.001892,123.732475 995.135315,125.080750 995.133179,129.616257 
	C995.027222,351.438568 995.040405,573.260925 995.040405,795.083313 
	C995.040405,796.735657 995.040405,798.387939 995.040405,800.898987 
	C830.457825,800.898987 666.213806,800.898987 501.504730,800.932556 
	C501.039642,800.966125 501.000946,801.000427 501.017395,800.980957 
M604.912781,242.503204 
	C604.912781,250.001968 605.100891,257.507568 604.829346,264.996460 
	C604.703064,268.479309 605.785767,270.842041 608.333801,273.182465 
	C671.499817,331.202454 734.600891,389.293152 797.707947,447.377380 
	C800.961365,450.371857 804.165039,453.420319 807.465515,456.512604 
	C806.629395,457.497955 806.254639,458.046356 805.778870,458.485107 
	C787.905090,474.969330 770.028931,491.451019 752.138672,507.917328 
	C704.226990,552.015503 656.323669,596.122986 608.350769,640.154480 
	C605.802307,642.493591 604.757446,644.873047 604.831055,648.349976 
	C605.056580,659.010193 604.912842,669.678284 604.912781,680.343262 
	C604.912781,685.781189 604.912781,691.219177 604.912781,698.162415 
	C609.786865,696.859619 614.778687,696.986145 617.505554,694.563416 
	C637.795837,676.536438 657.647461,658.015259 677.616882,639.627686 
	C732.750244,588.861633 787.874939,538.086121 843.000732,487.311859 
	C854.005005,477.176208 864.999329,467.029907 876.203979,456.698883 
	C873.934448,454.550842 872.030334,452.703766 870.078857,450.908234 
	C822.161621,406.820557 774.230957,362.747528 726.320862,318.652039 
	C694.215881,289.103241 662.145325,259.516968 630.026062,229.983627 
	C628.721924,228.784485 627.113892,227.163666 625.583984,227.091965 
	C618.833008,226.775635 612.058838,226.955231 604.912720,226.955231 
	C604.912720,232.229797 604.912720,236.867203 604.912781,242.503204 
M891.325195,634.500000 
	C891.325195,620.120483 891.325195,605.740967 891.325195,589.966675 
	C852.083008,626.091797 813.931213,661.213135 775.388855,696.693970 
	C814.499817,696.693970 852.731323,696.693970 891.325623,696.693970 
	C891.325623,676.079407 891.325623,655.789673 891.325195,634.500000 
M855.815918,290.673676 
	C867.443542,301.361359 879.071167,312.049072 891.214722,323.210999 
	C891.214722,290.521545 891.214722,258.963440 891.214722,227.193802 
	C856.558838,227.193802 822.228882,227.193802 786.878174,227.193802 
	C810.139404,248.617859 832.714539,269.410034 855.815918,290.673676 
M604.910278,429.531891 
	C604.910278,451.480713 604.910278,473.429535 604.910278,496.311798 
	C619.832520,482.556396 633.811218,469.670715 647.947937,456.639374 
	C633.474182,443.331848 619.497925,430.481750 604.910217,417.069489 
	C604.910217,421.579254 604.910217,425.064240 604.910278,429.531891 
z"/>
<path fill="#010101" opacity="1.000000" stroke="none" 
	d="
M604.912720,242.003906 
	C604.912720,236.867203 604.912720,232.229797 604.912720,226.955231 
	C612.058838,226.955231 618.833008,226.775635 625.583984,227.091965 
	C627.113892,227.163666 628.721924,228.784485 630.026062,229.983627 
	C662.145325,259.516968 694.215881,289.103241 726.320862,318.652039 
	C774.230957,362.747528 822.161621,406.820557 870.078857,450.908234 
	C872.030334,452.703766 873.934448,454.550842 876.203979,456.698883 
	C864.999329,467.029907 854.005005,477.176208 843.000732,487.311859 
	C787.874939,538.086121 732.750244,588.861633 677.616882,639.627686 
	C657.647461,658.015259 637.795837,676.536438 617.505554,694.563416 
	C614.778687,696.986145 609.786865,696.859619 604.912781,698.162415 
	C604.912781,691.219177 604.912781,685.781189 604.912781,680.343262 
	C604.912842,669.678284 605.056580,659.010193 604.831055,648.349976 
	C604.757446,644.873047 605.802307,642.493591 608.350769,640.154480 
	C656.323669,596.122986 704.226990,552.015503 752.138672,507.917328 
	C770.028931,491.451019 787.905090,474.969330 805.778870,458.485107 
	C806.254639,458.046356 806.629395,457.497955 807.465515,456.512604 
	C804.165039,453.420319 800.961365,450.371857 797.707947,447.377380 
	C734.600891,389.293152 671.499817,331.202454 608.333801,273.182465 
	C605.785767,270.842041 604.703064,268.479309 604.829346,264.996460 
	C605.100891,257.507568 604.912781,250.001968 604.912720,242.003906 
z"/>
<path fill="#010101" opacity="1.000000" stroke="none" 
	d="
M891.325439,635.000000 
	C891.325623,655.789673 891.325623,676.079407 891.325623,696.693970 
	C852.731323,696.693970 814.499817,696.693970 775.388855,696.693970 
	C813.931213,661.213135 852.083008,626.091797 891.325195,589.966675 
	C891.325195,605.740967 891.325195,620.120483 891.325439,635.000000 
z"/>
<path fill="#010101" opacity="1.000000" stroke="none" 
	d="
M855.552795,290.437958 
	C832.714539,269.410034 810.139404,248.617859 786.878174,227.193802 
	C822.228882,227.193802 856.558838,227.193802 891.214722,227.193802 
	C891.214722,258.963440 891.214722,290.521545 891.214722,323.210999 
	C879.071167,312.049072 867.443542,301.361359 855.552795,290.437958 
z"/>
<path fill="#020202" opacity="1.000000" stroke="none" 
	d="
M604.910278,429.040558 
	C604.910217,425.064240 604.910217,421.579254 604.910217,417.069489 
	C619.497925,430.481750 633.474182,443.331848 647.947937,456.639374 
	C633.811218,469.670715 619.832520,482.556396 604.910278,496.311798 
	C604.910278,473.429535 604.910278,451.480713 604.910278,429.040558 
z"/>
</svg>